<?xml version="1.0" standalone="no"?>
<!DOCTYPE svg PUBLIC "-//W3C//DTD SVG 20010904//EN"
 "http://www.w3.org/TR/2001/REC-SVG-20010904/DTD/svg10.dtd">
<svg version="1.0" xmlns="http://www.w3.org/2000/svg"
 width="300.000000pt" height="300.000000pt" viewBox="0 0 300.000000 300.000000"
 preserveAspectRatio="xMidYMid meet">
<metadata>
Created by potrace 1.10, written by Peter Selinger 2001-2011
</metadata>
<g transform="translate(0.000000,300.000000) scale(0.100000,-0.100000)"
fill="#000000" stroke="none">
<path d="M733 1877 c-63 -39 -77 -52 -43 -42 14 4 27 11 30 15 3 4 20 15 38
24 33 17 34 17 92 -13 63 -33 75 -37 65 -22 -7 12 -110 71 -121 70 -5 0 -32
-15 -61 -32z"/>
<path d="M647 1824 c-4 -4 -7 -40 -7 -79 l0 -72 75 -46 75 -46 0 78 0 77 -64
37 c-36 21 -66 43 -68 48 -2 6 -7 7 -11 3z m97 -95 c19 -15 26 -30 26 -55 0
-36 -8 -42 -29 -21 -11 10 -12 9 -5 -3 4 -8 -6 -4 -23 10 -18 14 -32 33 -32
42 -1 9 -4 23 -7 32 -9 24 37 21 70 -5z"/>
<path d="M930 1821 c0 -5 -27 -26 -60 -46 -64 -39 -78 -52 -55 -52 8 0 17 7
19 14 3 8 10 12 16 8 5 -3 20 1 34 10 18 12 25 13 28 3 6 -18 -8 -92 -19 -95
-4 -2 -28 -16 -51 -32 -64 -42 -36 -45 32 -4 39 24 63 33 71 27 44 -33 65 -45
100 -59 l40 -16 -25 20 c-14 11 -44 31 -67 43 l-43 23 0 82 c0 49 -4 83 -10
83 -5 0 -10 -4 -10 -9z"/>
<path d="M557 1617 l-68 -42 3 -89 3 -89 73 -44 73 -45 69 41 c66 40 87 57 78
67 -6 6 -122 -56 -126 -67 -2 -5 -8 -9 -13 -9 -5 0 -9 33 -9 74 l0 74 -47 27
c-91 53 -91 54 -23 92 33 19 60 38 60 44 0 12 4 14 -73 -34z m9 -122 c4 -8 10
-13 14 -10 5 3 18 -5 29 -17 22 -23 27 -63 12 -87 -8 -13 -14 -12 -43 3 -44
24 -63 64 -47 100 14 29 27 33 35 11z"/>
<path d="M1101 1546 c-18 -44 -20 -59 -11 -78 10 -21 10 -21 -3 -5 -14 17 -16
15 -32 -25 -14 -37 -76 -98 -99 -98 -3 0 -6 33 -6 73 l0 72 -71 43 c-38 23
-75 42 -81 42 -16 0 -138 -73 -138 -82 0 -12 5 -10 60 22 28 17 56 27 62 24 6
-4 8 -2 4 4 -3 6 -2 13 4 17 6 4 10 -22 10 -74 l0 -81 70 -45 c39 -25 74 -45
78 -45 4 0 30 15 58 33 28 17 59 37 70 43 10 6 20 21 22 33 3 18 10 21 47 21
38 0 44 -3 53 -29 10 -28 11 -28 88 -29 82 -1 114 12 114 48 0 24 -18 37 -62
45 -21 4 -38 11 -38 16 0 16 30 22 55 11 19 -9 25 -8 29 4 9 23 9 23 -28 29
-43 9 -73 -1 -86 -26 -17 -31 4 -58 50 -65 26 -4 40 -12 40 -22 0 -12 -9 -14
-45 -9 -35 5 -46 3 -53 -10 -7 -12 -19 9 -50 88 -34 88 -44 104 -64 107 -20 3
-27 -5 -47 -52z m62 -38 l16 -38 -34 0 -33 0 15 40 c9 22 17 39 19 38 1 -2 9
-20 17 -40z m-255 -28 c18 -12 22 -24 22 -67 l0 -52 -37 21 c-67 38 -74 47
-71 98 l3 45 30 -15 c16 -9 40 -22 53 -30z"/>
<path d="M1882 1490 c-2 -89 0 -110 12 -110 11 0 13 17 9 90 -3 50 -2 90 1 90
4 0 24 -37 46 -82 l40 -81 40 84 39 84 1 -92 c0 -68 3 -93 13 -93 9 0 11 27 9
110 -4 134 -15 141 -63 35 -19 -41 -37 -74 -40 -75 -4 0 -22 34 -40 75 -50
110 -64 103 -67 -35z"/>
<path d="M1788 1582 c-11 -2 -18 -13 -18 -27 0 -18 -4 -23 -15 -19 -10 4 -15
0 -15 -15 0 -12 6 -21 15 -21 11 0 15 -12 15 -48 0 -57 12 -72 57 -72 38 0 47
27 11 32 -19 2 -24 10 -26 46 -3 39 -1 42 22 42 20 0 26 5 26 21 0 17 -5 20
-24 17 -21 -4 -25 -1 -28 21 -2 19 -8 25 -20 23z"/>
<path d="M2450 1561 c0 -10 -10 -22 -22 -26 l-23 -8 22 -4 c20 -4 22 -11 25
-71 l3 -67 33 -3 c18 -2 32 1 32 7 0 6 -11 11 -25 11 -24 0 -25 3 -25 60 0 57
1 60 25 60 14 0 25 5 25 11 0 7 -10 9 -25 7 -21 -4 -25 -1 -25 18 0 13 -4 24
-10 24 -5 0 -10 -8 -10 -19z"/>
<path d="M1020 1528 c-35 -23 -59 -43 -52 -46 6 -2 32 10 57 27 25 17 50 31
54 31 5 0 11 7 15 15 8 23 -3 18 -74 -27z"/>
<path d="M1442 1533 c-7 -2 -17 -13 -22 -24 -17 -30 4 -58 50 -65 26 -4 40
-12 40 -22 0 -12 -9 -14 -45 -9 -27 4 -47 2 -51 -4 -19 -31 92 -41 119 -11 34
38 17 65 -46 76 -49 9 -43 31 8 31 21 0 40 5 42 11 6 18 -62 31 -95 17z"/>
<path d="M1602 1524 c-45 -31 -48 -87 -7 -127 28 -29 129 -17 111 12 -5 7 -20
9 -40 6 -25 -5 -36 -2 -51 15 l-20 22 63 -3 c59 -4 62 -3 62 19 0 30 -43 72
-72 72 -13 0 -34 -7 -46 -16z m64 -28 c26 -19 14 -28 -32 -24 -36 3 -37 4 -20
21 21 21 27 21 52 3z"/>
<path d="M2153 1533 c-26 -10 -11 -20 30 -19 36 1 42 -2 45 -21 3 -21 -1 -23
-35 -23 -44 0 -63 -14 -63 -46 0 -32 20 -43 76 -42 l49 1 -3 66 c-2 36 -8 72
-14 78 -10 13 -61 16 -85 6z m65 -82 c8 -5 12 -17 10 -27 -4 -25 -65 -33 -74
-10 -13 33 32 58 64 37z"/>
<path d="M2302 1524 c-39 -27 -21 -61 41 -73 23 -5 32 -12 32 -26 0 -23 -48
-33 -70 -15 -8 7 -15 7 -19 1 -15 -24 59 -40 95 -21 41 22 14 80 -38 80 -28 0
-44 15 -37 33 7 19 59 24 69 7 4 -6 11 -7 17 -4 15 9 -19 34 -47 34 -11 0 -31
-7 -43 -16z"/>
<path d="M2572 1533 c-21 -8 -44 -63 -38 -89 14 -55 80 -81 122 -49 18 14 16
15 -22 9 -35 -5 -46 -2 -65 17 l-24 24 68 3 69 3 -6 27 c-12 47 -59 73 -104
55z m76 -40 c14 -23 14 -23 -42 -23 -53 0 -56 1 -46 19 19 37 64 39 88 4z"/>
<path d="M2710 1460 c0 -47 4 -80 10 -80 6 0 10 27 10 60 0 49 3 61 20 70 11
6 25 8 30 5 6 -3 10 1 10 9 0 19 -13 20 -41 6 -13 -7 -19 -7 -19 0 0 5 -4 10
-10 10 -6 0 -10 -33 -10 -80z"/>
</g>
</svg>